<svg xmlns="http://www.w3.org/2000/svg" width="220" height="48" viewBox="0 0 220 48" role="img" aria-label="EchoChat">
  <defs>
    <linearGradient id="echochat-mark-fill" x1="0" y1="0" x2="1" y2="1">
      <stop offset="0%" stop-color="#f3e6cf" />
      <stop offset="100%" stop-color="#d7ccb9" />
    </linearGradient>
    <linearGradient id="echochat-wave" x1="0" y1="0" x2="1" y2="1">
      <stop offset="0%" stop-color="#a4d5c7" />
      <stop offset="100%" stop-color="#7eb8a7" />
    </linearGradient>
  </defs>
  <g>
    <rect x="2" y="4" width="40" height="40" rx="14" fill="url(#echochat-mark-fill)" />
    <path
      d="M14 17.5C14 14.462 16.462 12 19.5 12H24.5C27.538 12 30 14.462 30 17.5V20C30 23.038 27.538 25.5 24.5 25.5H21L17.25 29.25C16.463 30.037 15.125 29.479 15.125 28.366V24.947C14.425 23.956 14 22.747 14 21.438V17.5Z"
      fill="#202020"
    />
    <circle cx="19.25" cy="19" r="1.4" fill="#8ac5b1" />
    <circle cx="22" cy="19" r="1.4" fill="#8ac5b1" />
    <circle cx="24.75" cy="19" r="1.4" fill="#8ac5b1" />
  </g>
  <text
    x="56"
    y="22"
    font-family="Manrope, Segoe UI, Arial, sans-serif"
    font-size="20"
    font-weight="800"
    letter-spacing="0.02em"
    fill="#f6f1e6"
  >
    Echo
  </text>
  <text
    x="56"
    y="36"
    font-family="Manrope, Segoe UI, Arial, sans-serif"
    font-size="10"
    font-weight="700"
    letter-spacing="0.28em"
    fill="#95c7ba"
  >
    CHAT
  </text>
</svg>
